<svg width="168" height="58" viewBox="0 0 168 58" fill="none" xmlns="http://www.w3.org/2000/svg">
<path fill-rule="evenodd" clip-rule="evenodd" d="M29.5 0V11.6C19.8902 11.6 12.1 19.3902 12.1 29C12.1 38.6098 19.8902 46.4 29.5 46.4C39.1098 46.4 46.9 38.6098 46.9 29H58.5C58.5 45.0163 45.5163 58 29.5 58C13.4837 58 0.5 45.0163 0.5 29C0.5 12.9837 13.4837 0 29.5 0Z" fill="#5528FF"/>
<path fill-rule="evenodd" clip-rule="evenodd" d="M29.5 5.80005H52.7V29H41.1V17.4001H29.5V5.80005Z" fill="#5528FF"/>
<path d="M98.6718 26.976C100.08 26.976 101.232 27.408 102.128 28.272C103.04 29.136 103.496 30.272 103.496 31.68V39H100.088V32.376C100.088 31.672 99.9038 31.12 99.5358 30.72C99.1678 30.304 98.6718 30.096 98.0478 30.096C97.6318 30.096 97.2238 30.216 96.8238 30.456C96.4398 30.68 96.1438 30.976 95.9358 31.344V39H92.5518V32.376C92.5518 31.688 92.3678 31.136 91.9998 30.72C91.6318 30.304 91.1598 30.096 90.5838 30.096C90.1038 30.096 89.6718 30.216 89.2878 30.456C88.9038 30.696 88.6158 31.016 88.4238 31.416V39H85.0398V27.216H88.4238V28.56C89.1758 27.504 90.2958 26.976 91.7838 26.976C93.3038 26.976 94.3998 27.528 95.0718 28.632C95.4718 28.168 95.9838 27.776 96.6078 27.456C97.2478 27.136 97.9358 26.976 98.6718 26.976ZM114.348 27.216H117.732V39H114.348V37.608C114.06 38.088 113.588 38.48 112.932 38.784C112.292 39.088 111.604 39.24 110.868 39.24C109.332 39.24 108.028 38.648 106.956 37.464C105.9 36.264 105.372 34.808 105.372 33.096C105.372 31.384 105.9 29.936 106.956 28.752C108.028 27.568 109.332 26.976 110.868 26.976C111.604 26.976 112.292 27.128 112.932 27.432C113.588 27.736 114.06 28.128 114.348 28.608V27.216ZM111.612 36.024C112.188 36.024 112.724 35.888 113.22 35.616C113.716 35.344 114.092 34.992 114.348 34.56V31.68C114.092 31.232 113.716 30.872 113.22 30.6C112.724 30.312 112.188 30.168 111.612 30.168C110.78 30.168 110.084 30.448 109.524 31.008C108.964 31.568 108.684 32.264 108.684 33.096C108.684 33.928 108.964 34.624 109.524 35.184C110.084 35.744 110.78 36.024 111.612 36.024ZM133.734 26.976C135.142 26.976 136.294 27.408 137.19 28.272C138.102 29.136 138.558 30.272 138.558 31.68V39H135.15V32.376C135.15 31.672 134.966 31.12 134.598 30.72C134.23 30.304 133.734 30.096 133.11 30.096C132.694 30.096 132.286 30.216 131.886 30.456C131.502 30.68 131.206 30.976 130.998 31.344V39H127.614V32.376C127.614 31.688 127.43 31.136 127.062 30.72C126.694 30.304 126.222 30.096 125.646 30.096C125.166 30.096 124.734 30.216 124.35 30.456C123.966 30.696 123.678 31.016 123.486 31.416V39H120.102V27.216H123.486V28.56C124.238 27.504 125.358 26.976 126.846 26.976C128.366 26.976 129.462 27.528 130.134 28.632C130.534 28.168 131.046 27.776 131.67 27.456C132.31 27.136 132.998 26.976 133.734 26.976ZM146.554 26.976C148.282 26.976 149.73 27.568 150.898 28.752C152.082 29.92 152.674 31.376 152.674 33.12C152.674 34.864 152.082 36.32 150.898 37.488C149.73 38.656 148.282 39.24 146.554 39.24C144.81 39.24 143.354 38.656 142.186 37.488C141.018 36.32 140.434 34.864 140.434 33.12C140.434 31.376 141.018 29.92 142.186 28.752C143.354 27.568 144.81 26.976 146.554 26.976ZM148.546 31.056C148.018 30.496 147.354 30.216 146.554 30.216C145.754 30.216 145.082 30.496 144.538 31.056C144.01 31.6 143.746 32.288 143.746 33.12C143.746 33.936 144.01 34.624 144.538 35.184C145.082 35.728 145.754 36 146.554 36C147.354 36 148.018 35.728 148.546 35.184C149.09 34.624 149.362 33.936 149.362 33.12C149.362 32.288 149.09 31.6 148.546 31.056ZM161.179 26.976C162.667 26.976 163.835 27.456 164.683 28.416C165.547 29.36 165.979 30.664 165.979 32.328V39H162.595V32.904C162.595 32.088 162.387 31.456 161.971 31.008C161.571 30.56 161.019 30.336 160.315 30.336C159.851 30.336 159.403 30.464 158.971 30.72C158.539 30.96 158.203 31.28 157.963 31.68V39H154.579V27.216H157.963V28.608C158.283 28.112 158.731 27.72 159.307 27.432C159.899 27.128 160.523 26.976 161.179 26.976Z" fill="#202020"/>
</svg>
